PathFileType	4	(X/Y/Z)	 s04c0402.trc
DataRate	CameraRate	NumFrames	NumMarkers	Units	OrigDataRate	OrigDataStartFrame	OrigNumFrames
200	200	4	50	mm	200	1751	2000
Frame#	Time	racr			lacr			c7			jug			rlel			rdr			llel			ldr			s2			lic			ric			lasi			rasi			rpsi			lpsi			rgt			lgt			rth1			rth2			rth3			rth4			rlfc			rmfc			rsh1			rsh2			rsh3			rsh4			rlmal			rmmal			rcal			rtoe			rmt5			lth1			lth2			lth4			lth3			llfc			lmfc			lsh1			lsh2			lsh3			lsh4			llmal			lmmal			lcal			ltoe			lmt5			SBIKE			LBIKE			RBIKE			
		X1	Y1	Z1	X2	Y2	Z2	X3	Y3	Z3	X4	Y4	Z4	X5	Y5	Z5	X6	Y6	Z6	X7	Y7	Z7	X8	Y8	Z8	X9	Y9	Z9	X10	Y10	Z10	X11	Y11	Z11	X12	Y12	Z12	X13	Y13	Z13	X14	Y14	Z14	X15	Y15	Z15	X16	Y16	Z16	X17	Y17	Z17	X18	Y18	Z18	X19	Y19	Z19	X20	Y20	Z20	X21	Y21	Z21	X22	Y22	Z22	X23	Y23	Z23	X24	Y24	Z24	X25	Y25	Z25	X26	Y26	Z26	X27	Y27	Z27	X28	Y28	Z28	X29	Y29	Z29	X30	Y30	Z30	X31	Y31	Z31	X32	Y32	Z32	X33	Y33	Z33	X34	Y34	Z34	X35	Y35	Z35	X36	Y36	Z36	X37	Y37	Z37	X38	Y38	Z38	X39	Y39	Z39	X40	Y40	Z40	X41	Y41	Z41	X42	Y42	Z42	X43	Y43	Z43	X44	Y44	Z44	X45	Y45	Z45	X46	Y46	Z46	X47	Y47	Z47	X48	Y48	Z48	X49	Y49	Z49	X50	Y50	Z50	
1751	8.7550	740.155159	1298.700683	-121.998524	773.165102	1258.234785	-430.626257	770.541591	1341.555212	-287.283154	713.234770	1200.369028	-276.513719	523.889637	1140.078498	61.787422	693.282021	942.835257	-51.399414	552.531152	1124.910471	-587.153411	693.826722	938.062969	-464.541588	166.919002	1228.640471	-295.664074	321.745611	1206.993592	-444.435843	316.722587	1197.498242	-124.278672	353.191998	1159.648608	-402.353178	342.198712	1134.152616	-171.171053	204.146386	1265.026235	-248.659032	206.442225	1270.197236	-323.493047	245.918499	1144.634586	-113.360485	292.387929	1142.752156	-481.747288	294.278917	989.645615	-83.434658	332.015773	910.360450	-91.655227	329.190203	824.973050	-92.998676	364.297224	918.689239	-108.632522	349.170434	678.999222	-112.947727	330.500299	659.821439	-225.017989	279.593932	569.287146	-91.947150	259.077672	481.314211	-108.070544	198.042611	421.664427	-118.419754	290.193480	469.568208	-128.472589	135.213332	284.962996	-128.217924	162.981317	285.665649	-210.843274	68.780584	290.136065	-167.641132	324.546891	130.478795	-151.872925	253.109987	142.847983	-98.722783	349.531050	1082.626442	-476.322687	430.960418	1052.186273	-471.547547	449.818551	1080.178818	-456.732769	487.632153	984.642028	-476.346280	594.251104	871.563508	-446.946840	607.566915	847.926094	-331.267168	520.584853	789.947069	-467.908885	462.194921	728.286671	-446.181190	378.749317	697.177574	-448.601228	477.293735	711.325225	-414.475961	251.672449	623.550962	-444.463282	246.708824	632.054938	-354.527139	167.920747	650.287020	-405.617140	408.540232	467.440892	-394.820386	333.437862	477.403644	-461.704488	-177.109038	936.665256	-279.369205	-3.199875	85.671686	-484.646266	-15.004418	80.440368	-84.211508	
1752	8.7600	738.382649	1299.323316	-121.548200	771.875381	1259.703772	-430.096149	768.807959	1342.679435	-286.871240	711.681110	1201.391816	-276.608272	522.642613	1139.547890	61.788314	693.060380	943.018254	-51.267765	552.305968	1124.907767	-587.231103	694.281004	938.285315	-464.712021	165.235849	1229.702191	-296.602535	321.471992	1207.617787	-445.429051	314.364845	1199.168172	-124.388583	351.853509	1160.362650	-402.410224	340.186314	1135.604321	-170.825793	202.297123	1265.997102	-249.709348	204.825100	1271.107150	-324.380160	243.747537	1146.317487	-113.775368	291.240749	1143.202796	-482.022960	292.138922	991.081830	-83.332987	329.930693	911.657159	-91.354694	327.064542	826.299635	-92.788740	362.273863	920.032216	-108.353022	346.706750	680.260883	-112.679636	328.202281	661.157813	-224.759073	276.260474	571.032604	-91.743330	255.289609	483.397469	-107.616377	193.848835	423.826898	-118.451291	286.389985	471.257114	-128.047815	130.651455	287.351118	-128.438294	158.492915	288.058853	-210.903192	63.875406	293.148307	-167.563270	318.319338	130.978473	-151.886485	247.020574	144.111563	-98.792657	348.004788	1083.397733	-476.304886	429.719973	1053.702826	-471.527514	448.389001	1082.078978	-457.194199	486.804612	986.687288	-476.303863	595.072964	875.399882	-446.255295	609.039311	852.343353	-330.385850	523.093383	792.778206	-467.431255	465.930296	730.005559	-445.939235	382.838499	697.625584	-448.271959	481.166684	713.483820	-414.140160	256.785541	621.729339	-444.171941	251.898524	630.138770	-353.879007	172.709011	647.752258	-405.420231	414.735347	466.846854	-394.931146	339.657523	476.233936	-461.509369	-177.101796	936.674208	-279.360995	-3.216606	85.678302	-484.647937	-14.999272	80.447153	-84.210983	
1753	8.7650	736.632035	1299.985798	-120.986389	770.656565	1261.229659	-429.509664	767.059257	1343.856989	-286.381724	710.247094	1202.416031	-276.605415	521.489567	1139.048197	61.834983	692.847231	943.258023	-51.220134	552.146627	1125.012614	-587.183317	694.493015	938.532804	-464.731674	163.565778	1230.882224	-297.633240	320.291579	1208.298628	-445.508909	311.778374	1201.364244	-124.181249	350.499355	1160.979086	-402.457606	338.195614	1137.023118	-170.502451	200.595052	1267.253271	-250.704720	203.214148	1272.259990	-325.436121	241.345919	1148.559928	-113.559159	290.067198	1143.700364	-482.274999	290.023412	992.570631	-83.178285	327.936693	913.096393	-91.036966	325.127985	827.807626	-92.543862	360.278800	921.547293	-108.008207	344.480159	681.714496	-112.270023	326.353491	662.706967	-224.458834	273.156988	572.834680	-91.523057	251.675282	484.935034	-107.701521	190.022690	426.190544	-118.418664	282.948546	472.969320	-127.739711	126.334343	289.977893	-128.546975	154.341276	290.547448	-210.905839	59.893534	296.349526	-167.921171	312.582132	131.571939	-151.932484	241.383222	145.365285	-98.840465	346.509539	1084.194066	-476.302561	428.406401	1055.329458	-471.580917	446.955715	1083.854545	-457.570541	485.892230	988.618837	-476.116789	595.907569	878.934136	-444.500007	610.034023	856.301150	-329.377061	525.144850	795.302299	-466.910644	469.013204	731.440791	-445.510473	386.435504	697.928503	-448.009596	484.534569	715.284494	-413.754981	261.778462	620.399230	-444.344094	256.633210	627.990662	-353.347402	177.001980	645.117305	-405.135479	420.418473	465.708620	-394.447972	345.491554	475.020937	-461.329600	-177.120349	936.693564	-279.380215	-3.215383	85.679393	-484.644198	-15.001559	80.456601	-84.216488	
1754	8.7700	734.872697	1300.742583	-120.315117	769.450269	1262.790973	-428.753732	765.344786	1345.113464	-285.834516	708.808681	1203.536599	-276.534582	520.279251	1138.512273	61.900072	692.634183	943.599836	-51.187624	551.998215	1125.289765	-587.081486	693.815641	938.110218	-464.512724	161.904124	1232.227457	-298.686306	319.077655	1208.903488	-445.545014	309.595035	1203.185428	-124.514953	349.122789	1161.567957	-402.438818	336.258220	1138.565360	-170.096199	198.922240	1268.654737	-251.795662	201.658594	1273.467561	-326.601219	239.086368	1150.511429	-114.175957	288.884202	1144.267136	-482.481434	287.841274	994.173335	-83.115601	325.967702	914.867195	-90.750239	323.200697	829.473530	-92.298284	358.412524	923.334103	-107.544383	342.497042	683.287821	-111.797438	324.893222	664.335181	-224.120087	270.371193	574.941717	-91.270520	248.439474	487.152067	-107.467519	186.556076	428.573151	-118.386712	279.795370	474.813575	-127.347486	122.448375	292.635917	-128.681718	150.725507	293.004981	-210.949818	56.355434	299.551462	-168.380172	307.186253	132.343511	-151.883066	236.098021	146.862241	-98.949879	345.001149	1085.086168	-476.369388	427.152491	1056.826610	-471.556324	445.117178	1085.610894	-458.413125	485.009193	990.495698	-475.806627	595.927984	882.191220	-443.582027	610.560494	859.884872	-328.285130	526.648133	797.495960	-466.345812	471.759370	732.949619	-445.411603	389.502625	697.895436	-447.608588	487.225416	717.030996	-412.788099	266.176617	618.210173	-444.308954	260.893231	625.859519	-352.693048	180.910772	642.252258	-404.972319	425.858049	464.860431	-394.206331	350.991293	473.621139	-461.101095	-177.139310	936.701693	-279.412053	-3.213814	85.697524	-484.645041	-15.004639	80.472982	-84.222307	
